<?xml version="1.0" encoding="utf-8"?>
<!-- Generator: Adobe Illustrator 23.0.2, SVG Export Plug-In . SVG Version: 6.00 Build 0)  -->
<svg version="1.1" id="Layer_1" xmlns="http://www.w3.org/2000/svg" xmlns:xlink="http://www.w3.org/1999/xlink" x="0px" y="0px"
	 viewBox="0 0 143.1 37.9" style="enable-background:new 0 0 143.1 37.9;" xml:space="preserve">
<style type="text/css">
	.st0{fill:#F59B9E;}
</style>
<title>logo</title>
<g>
	<path class="st0" d="M19.7,24.1l4.5,2.3c-2.1,3.9-6,6.4-10.8,6.4c-7.5,0-12.6-6.1-12.6-13.9C0.7,11.1,5.9,5,13.4,5
		c4.8,0,8.7,2.5,10.8,6.4l-4.5,2.3c-1.3-2.2-3.4-3.5-6.3-3.5c-4.7,0-7.6,3.7-7.6,8.7s2.8,8.7,7.6,8.7C16.2,27.6,18.4,26.2,19.7,24.1
		z M13.5,16.3c1.4,0,2.5,1.2,2.5,2.6c0,1.5-1.1,2.6-2.5,2.6c-1.4,0-2.5-1.2-2.5-2.6C10.9,17.5,12.1,16.3,13.5,16.3z"/>
	<path class="st0" d="M51,18.9c0,7.8-5.1,13.9-12.6,13.9c-7.5,0-12.7-6.1-12.7-13.9C25.7,11.1,30.8,5,38.3,5C45.8,5,51,11.1,51,18.9
		z M45.9,18.9c0-5-2.8-8.7-7.6-8.7c-4.8,0-7.6,3.7-7.6,8.7s2.8,8.7,7.6,8.7C43.1,27.6,45.9,23.9,45.9,18.9z M40.8,18.9
		c0,1.4-1.1,2.6-2.5,2.6c-1.4,0-2.5-1.2-2.5-2.6c0-1.4,1.1-2.6,2.5-2.6C39.7,16.2,40.8,17.4,40.8,18.9z"/>
	<path class="st0" d="M62.7,23.1h-3.6v9.3h-5V18.2h9.5c2.5,0,4-1.7,4-4c0-2.3-1.6-4-4-4h-9.5v-5h9.7c5.8,0,9.1,4,9.1,9
		c0,3.7-1.7,6.8-5,8.2l5.6,10.1h-5.6L62.7,23.1z"/>
	<path class="st0" d="M83.4,18l-2.6,7.9L73.7,5.2h5.5L83.4,18z M97.6,5.2l-9.4,27.3h-5.1v0l9-27.2H97.6z"/>
	<path class="st0" d="M104.8,9.6h-5V5.2h5V9.6z M114.9,21.1l4.9,2.2c-0.6,5.9-4.4,9.4-9.9,9.4c-6.1,0-10-4.2-10-11v-8.3h5v8.2
		c0,3.7,1.9,6,5,6c3.1,0,5-2.3,5-6V21.1z M119.8,5.2v13.6l-5-2.3V5.2H119.8z"/>
	<path class="st0" d="M127,24.3c0.2,0.8,0.6,1.6,1.8,2.4l-1.7,4.9c-2.6-1.2-4.2-3.2-4.6-5.5L127,24.3z M142.4,24.6
		c0,4.5-3,8.4-9.8,8.4c-0.6,0-1.3,0-1.9-0.1l1.7-5.1c2.9-0.1,4.7-1.3,4.7-2.9c0-1.7-1.2-2.3-5.5-3.7c-6-1.9-8.5-4.2-8.5-8.3
		c0-3.6,2.5-7.9,9.2-7.9c1.1,0,2.2,0.2,3.2,0.5l-3.1,4.7c-0.1,0-0.2,0-0.3,0c-2.4,0-3.9,1-3.9,2.5c0,1.3,1,2.1,5.1,3.4
		C138.6,17.7,142.4,19.5,142.4,24.6z"/>
</g>
</svg>
